PathFileType	4	(X/Y/Z)	C:\Users\Willi\Documents\GitHub\processC3D_GUI\exampleC3Dfiles\fws_end01_R2\marker_experimental.trc
DataRate	CameraRate	NumFrames	NumMarkers	Units	OrigDataRate	OrigDataStartFrame	OrigNumFrames
2.000000e+02	2.000000e+02	12	51	m	2.000000e+02	1	314
Frame#	Time	CLAV			GLAB			LANK			LASI			LELB			LFIN			LFMH			LHEE			LKNE			LMAS			LPEL			LPSI			LSHO			LTHAD			LTHAP			LTHI			LTIAD			LTIAP			LTIB			LTOE			LVMH			LWRA			LWRB			RANK			RASI			RBAK			RELB			RFIN			RFMH			RHEE			RKNE			RMAS			RPEL			RPSI			RSHO			RTHAD			RTHAP			RTHI			RTIAD			RTIAP			RTIB			RTOE			RVMH			RWRA			RWRB			SACR			T10			T2			not_labelled_48			not_labelled_49			not_labelled_50		
		X1	Y1	Z1	X2	Y2	Z2	X3	Y3	Z3	X4	Y4	Z4	X5	Y5	Z5	X6	Y6	Z6	X7	Y7	Z7	X8	Y8	Z8	X9	Y9	Z9	X10	Y10	Z10	X11	Y11	Z11	X12	Y12	Z12	X13	Y13	Z13	X14	Y14	Z14	X15	Y15	Z15	X16	Y16	Z16	X17	Y17	Z17	X18	Y18	Z18	X19	Y19	Z19	X20	Y20	Z20	X21	Y21	Z21	X22	Y22	Z22	X23	Y23	Z23	X24	Y24	Z24	X25	Y25	Z25	X26	Y26	Z26	X27	Y27	Z27	X28	Y28	Z28	X29	Y29	Z29	X30	Y30	Z30	X31	Y31	Z31	X32	Y32	Z32	X33	Y33	Z33	X34	Y34	Z34	X35	Y35	Z35	X36	Y36	Z36	X37	Y37	Z37	X38	Y38	Z38	X39	Y39	Z39	X40	Y40	Z40	X41	Y41	Z41	X42	Y42	Z42	X43	Y43	Z43	X44	Y44	Z44	X45	Y45	Z45	X46	Y46	Z46	X47	Y47	Z47	X48	Y48	Z48	X49	Y49	Z49	X50	Y50	Z50	X51	Y51	Z51
1	1.18500	0.497	1.389	0.333	0.622	1.602	0.352	0.294	0.105	0.286	0.470	1.008	0.217	0.519	1.101	0.113	0.700	0.836	0.140	0.490	0.060	0.361	0.232	0.087	0.321	0.424	0.512	0.231	0.493	1.563	0.270	0.403	1.026	0.200	0.318	1.018	0.293	0.466	1.419	0.174	0.447	0.658	0.203	0.431	0.719	0.194	0.397	0.666	0.203	0.376	0.230	0.265	0.375	0.293	0.246	0.330	0.245	0.250	0.453	0.077	0.329	0.487	0.058	0.303	0.672	0.899	0.160	0.635	0.880	0.118	0.477	0.182	0.480	0.470	1.001	0.450	0.308	1.368	0.419	0.358	1.093	0.572	0.476	0.812	0.627	0.651	0.071	0.435	0.409	0.178	0.430	0.622	0.570	0.480	0.484	1.557	0.415	0.417	1.052	0.479	0.314	1.020	0.400	0.443	1.412	0.497	0.579	0.706	0.503	0.549	0.764	0.511	0.528	0.700	0.504	0.556	0.316	0.485	0.572	0.380	0.492	0.516	0.346	0.494	0.614	0.103	0.450	0.631	0.079	0.492	0.479	0.855	0.588	0.414	0.843	0.626	0.313	1.051	0.343	0.297	1.240	0.335	0.368	1.457	0.333	-0.000	0.011	-0.000	0.719	0.012	-0.006	-0.000	0.011	0.762
2	1.19000	0.497	1.388	0.332	0.622	1.602	0.352	0.288	0.105	0.286	0.469	1.008	0.217	0.521	1.101	0.113	0.705	0.839	0.142	0.484	0.060	0.361	0.225	0.088	0.321	0.421	0.512	0.231	0.493	1.563	0.270	0.402	1.025	0.200	0.317	1.018	0.293	0.466	1.419	0.174	0.444	0.657	0.203	0.429	0.719	0.194	0.394	0.666	0.203	0.370	0.230	0.265	0.371	0.293	0.246	0.325	0.245	0.250	0.447	0.077	0.329	0.481	0.058	0.303	0.676	0.902	0.162	0.640	0.881	0.119	0.488	0.177	0.480	0.469	1.001	0.450	0.308	1.368	0.419	0.357	1.093	0.572	0.474	0.811	0.627	0.665	0.072	0.433	0.420	0.171	0.431	0.622	0.570	0.480	0.484	1.557	0.415	0.417	1.052	0.479	0.313	1.020	0.401	0.443	1.411	0.497	0.580	0.706	0.502	0.550	0.764	0.511	0.528	0.700	0.504	0.563	0.314	0.485	0.577	0.378	0.492	0.522	0.342	0.494	0.627	0.102	0.448	0.645	0.079	0.490	0.477	0.854	0.588	0.413	0.843	0.626	0.312	1.051	0.343	0.297	1.240	0.335	0.368	1.457	0.333	-0.000	0.011	-0.000	0.719	0.012	-0.006	-0.000	0.011	0.762
3	1.19500	0.497	1.388	0.332	0.622	1.601	0.352	0.282	0.105	0.287	0.468	1.007	0.216	0.522	1.101	0.113	0.709	0.841	0.144	0.478	0.060	0.361	0.219	0.088	0.321	0.417	0.511	0.230	0.493	1.563	0.270	0.400	1.025	0.200	0.316	1.017	0.294	0.465	1.419	0.174	0.441	0.656	0.203	0.426	0.718	0.194	0.391	0.666	0.203	0.365	0.229	0.265	0.366	0.293	0.246	0.320	0.245	0.250	0.440	0.077	0.329	0.475	0.058	0.303	0.679	0.904	0.164	0.644	0.883	0.121	0.499	0.172	0.480	0.469	1.000	0.450	0.308	1.367	0.419	0.357	1.092	0.572	0.472	0.810	0.627	0.679	0.072	0.431	0.432	0.164	0.432	0.622	0.570	0.480	0.484	1.556	0.415	0.417	1.052	0.479	0.313	1.020	0.401	0.443	1.411	0.497	0.580	0.706	0.502	0.550	0.764	0.511	0.528	0.699	0.504	0.570	0.311	0.485	0.583	0.376	0.492	0.528	0.339	0.495	0.641	0.102	0.447	0.660	0.079	0.489	0.476	0.854	0.588	0.411	0.842	0.626	0.312	1.050	0.344	0.297	1.240	0.335	0.368	1.456	0.333	-0.000	0.011	-0.000	0.719	0.012	-0.006	-0.000	0.011	0.762
4	1.20000	0.496	1.387	0.332	0.622	1.601	0.352	0.276	0.105	0.287	0.467	1.006	0.216	0.524	1.101	0.114	0.714	0.844	0.147	0.472	0.059	0.361	0.213	0.088	0.321	0.413	0.511	0.230	0.493	1.562	0.270	0.399	1.024	0.200	0.315	1.017	0.294	0.465	1.418	0.173	0.439	0.656	0.203	0.424	0.718	0.194	0.389	0.665	0.203	0.360	0.229	0.265	0.361	0.292	0.246	0.315	0.245	0.250	0.434	0.077	0.329	0.469	0.058	0.303	0.683	0.906	0.166	0.648	0.884	0.123	0.511	0.167	0.481	0.469	1.000	0.449	0.308	1.367	0.419	0.356	1.092	0.571	0.471	0.810	0.627	0.693	0.073	0.429	0.443	0.158	0.433	0.623	0.569	0.480	0.484	1.556	0.415	0.417	1.051	0.479	0.313	1.020	0.401	0.443	1.410	0.497	0.579	0.706	0.502	0.550	0.764	0.511	0.528	0.699	0.504	0.577	0.309	0.485	0.588	0.374	0.492	0.535	0.335	0.495	0.654	0.102	0.446	0.674	0.079	0.487	0.474	0.853	0.588	0.410	0.842	0.626	0.311	1.050	0.344	0.297	1.239	0.335	0.367	1.456	0.333	-0.000	0.011	-0.000	0.719	0.012	-0.006	-0.000	0.011	0.762
5	1.20500	0.496	1.387	0.332	0.622	1.600	0.352	0.270	0.105	0.287	0.466	1.006	0.216	0.525	1.101	0.114	0.718	0.846	0.149	0.466	0.059	0.361	0.207	0.088	0.322	0.410	0.510	0.230	0.493	1.562	0.270	0.398	1.024	0.200	0.314	1.017	0.294	0.465	1.418	0.173	0.436	0.655	0.203	0.421	0.717	0.194	0.386	0.665	0.203	0.355	0.229	0.266	0.356	0.292	0.246	0.310	0.245	0.250	0.428	0.077	0.329	0.463	0.058	0.303	0.686	0.908	0.168	0.652	0.886	0.125	0.523	0.163	0.481	0.469	0.999	0.449	0.308	1.366	0.419	0.356	1.092	0.571	0.469	0.809	0.626	0.707	0.074	0.427	0.455	0.152	0.434	0.622	0.568	0.479	0.484	1.555	0.415	0.416	1.051	0.479	0.312	1.020	0.402	0.443	1.410	0.496	0.579	0.705	0.502	0.550	0.764	0.511	0.528	0.699	0.504	0.584	0.306	0.485	0.593	0.372	0.492	0.541	0.331	0.495	0.667	0.101	0.444	0.689	0.079	0.485	0.473	0.852	0.587	0.409	0.841	0.625	0.311	1.050	0.345	0.297	1.239	0.336	0.367	1.456	0.333	-0.000	0.011	-0.000	0.719	0.012	-0.006	-0.000	0.011	0.762
6	1.21000	0.496	1.386	0.332	0.622	1.600	0.352	0.264	0.106	0.287	0.465	1.005	0.216	0.526	1.101	0.114	0.722	0.849	0.152	0.459	0.059	0.361	0.201	0.088	0.322	0.406	0.510	0.230	0.493	1.561	0.270	0.397	1.023	0.200	0.314	1.016	0.295	0.465	1.418	0.173	0.433	0.655	0.203	0.419	0.717	0.194	0.384	0.665	0.203	0.350	0.229	0.266	0.351	0.292	0.246	0.305	0.245	0.250	0.422	0.077	0.329	0.457	0.058	0.303	0.690	0.910	0.170	0.656	0.888	0.127	0.535	0.159	0.481	0.469	0.999	0.449	0.308	1.366	0.419	0.356	1.091	0.571	0.468	0.808	0.626	0.721	0.076	0.425	0.466	0.145	0.435	0.622	0.568	0.479	0.484	1.554	0.415	0.416	1.050	0.479	0.312	1.019	0.402	0.444	1.409	0.496	0.579	0.704	0.502	0.550	0.763	0.511	0.527	0.698	0.504	0.592	0.304	0.485	0.598	0.370	0.492	0.548	0.327	0.496	0.681	0.102	0.443	0.703	0.080	0.483	0.472	0.851	0.587	0.407	0.840	0.625	0.310	1.050	0.345	0.297	1.239	0.336	0.367	1.455	0.333	-0.000	0.011	-0.000	0.719	0.012	-0.006	-0.000	0.011	0.762
7	1.21500	0.496	1.386	0.331	0.622	1.599	0.352	0.258	0.106	0.287	0.464	1.004	0.216	0.528	1.101	0.115	0.727	0.851	0.154	0.453	0.059	0.361	0.195	0.088	0.322	0.402	0.509	0.230	0.493	1.561	0.270	0.396	1.023	0.200	0.313	1.016	0.295	0.465	1.417	0.173	0.431	0.654	0.203	0.417	0.716	0.194	0.381	0.664	0.203	0.345	0.228	0.266	0.347	0.292	0.246	0.300	0.245	0.250	0.416	0.077	0.329	0.451	0.058	0.303	0.693	0.913	0.172	0.660	0.889	0.129	0.547	0.154	0.481	0.469	0.998	0.449	0.308	1.366	0.419	0.355	1.091	0.571	0.466	0.807	0.626	0.735	0.077	0.423	0.478	0.139	0.436	0.622	0.566	0.479	0.484	1.554	0.415	0.416	1.050	0.479	0.312	1.019	0.402	0.444	1.409	0.496	0.578	0.703	0.502	0.550	0.762	0.511	0.526	0.697	0.504	0.599	0.302	0.485	0.603	0.367	0.492	0.554	0.324	0.496	0.694	0.102	0.441	0.717	0.080	0.481	0.470	0.850	0.587	0.406	0.840	0.625	0.310	1.049	0.345	0.297	1.238	0.336	0.367	1.455	0.333	-0.000	0.011	-0.000	0.719	0.012	-0.006	-0.000	0.011	0.762
8	1.22000	0.496	1.385	0.331	0.622	1.598	0.352	0.252	0.106	0.287	0.463	1.003	0.216	0.529	1.101	0.115	0.731	0.854	0.157	0.447	0.059	0.361	0.188	0.088	0.322	0.399	0.509	0.230	0.493	1.561	0.270	0.395	1.022	0.200	0.313	1.016	0.296	0.465	1.417	0.173	0.428	0.653	0.203	0.414	0.716	0.194	0.378	0.664	0.202	0.339	0.228	0.266	0.342	0.291	0.246	0.294	0.245	0.250	0.410	0.077	0.329	0.445	0.058	0.303	0.696	0.915	0.174	0.663	0.890	0.130	0.559	0.150	0.481	0.469	0.998	0.449	0.308	1.365	0.420	0.355	1.090	0.571	0.465	0.806	0.626	0.748	0.079	0.421	0.490	0.134	0.437	0.621	0.565	0.479	0.484	1.553	0.415	0.416	1.050	0.479	0.311	1.019	0.403	0.444	1.408	0.496	0.577	0.702	0.501	0.549	0.761	0.511	0.526	0.697	0.504	0.606	0.300	0.485	0.608	0.365	0.492	0.561	0.320	0.496	0.707	0.102	0.440	0.731	0.081	0.479	0.469	0.849	0.587	0.405	0.839	0.625	0.310	1.049	0.346	0.297	1.238	0.336	0.367	1.454	0.333	-0.000	0.011	-0.000	0.719	0.012	-0.006	-0.000	0.011	0.762
9	1.22500	0.496	1.385	0.331	0.622	1.598	0.352	0.246	0.106	0.287	0.462	1.003	0.215	0.530	1.100	0.115	0.735	0.856	0.159	0.441	0.059	0.361	0.182	0.089	0.322	0.395	0.508	0.230	0.494	1.560	0.270	0.394	1.021	0.200	0.312	1.015	0.296	0.465	1.416	0.173	0.425	0.653	0.203	0.412	0.715	0.194	0.376	0.664	0.202	0.334	0.228	0.266	0.337	0.291	0.246	0.289	0.245	0.250	0.404	0.077	0.329	0.439	0.058	0.303	0.699	0.917	0.176	0.667	0.892	0.132	0.571	0.147	0.481	0.469	0.997	0.449	0.309	1.365	0.420	0.355	1.090	0.571	0.463	0.805	0.625	0.762	0.081	0.418	0.502	0.128	0.438	0.620	0.564	0.479	0.484	1.552	0.415	0.417	1.049	0.479	0.311	1.019	0.403	0.444	1.407	0.496	0.576	0.701	0.501	0.548	0.760	0.511	0.525	0.696	0.504	0.612	0.298	0.485	0.613	0.363	0.492	0.567	0.316	0.497	0.720	0.103	0.438	0.745	0.083	0.477	0.468	0.848	0.587	0.404	0.838	0.625	0.309	1.049	0.346	0.297	1.238	0.336	0.368	1.454	0.333	-0.000	0.011	-0.000	0.719	0.012	-0.006	-0.000	0.011	0.762
10	1.23000	0.496	1.384	0.331	0.622	1.597	0.352	0.240	0.106	0.287	0.461	1.002	0.215	0.531	1.100	0.116	0.738	0.859	0.162	0.435	0.059	0.361	0.176	0.089	0.322	0.391	0.508	0.230	0.494	1.560	0.270	0.393	1.021	0.200	0.311	1.015	0.296	0.465	1.415	0.173	0.422	0.652	0.203	0.410	0.715	0.194	0.373	0.664	0.202	0.329	0.228	0.266	0.332	0.291	0.246	0.284	0.245	0.249	0.398	0.077	0.330	0.432	0.058	0.304	0.702	0.919	0.178	0.670	0.893	0.134	0.583	0.143	0.481	0.468	0.996	0.449	0.309	1.364	0.420	0.355	1.089	0.570	0.462	0.804	0.625	0.775	0.084	0.416	0.515	0.123	0.438	0.619	0.562	0.480	0.484	1.552	0.415	0.417	1.048	0.479	0.311	1.018	0.403	0.444	1.407	0.496	0.575	0.700	0.501	0.547	0.759	0.511	0.523	0.695	0.504	0.619	0.296	0.485	0.618	0.361	0.492	0.573	0.313	0.497	0.732	0.104	0.436	0.759	0.085	0.475	0.466	0.847	0.586	0.402	0.838	0.625	0.309	1.048	0.346	0.297	1.237	0.336	0.368	1.453	0.333	-0.000	0.011	-0.000	0.719	0.012	-0.006	-0.000	0.011	0.762
11	1.23500	0.496	1.383	0.331	0.622	1.596	0.352	0.234	0.107	0.287	0.461	1.001	0.215	0.532	1.100	0.116	0.742	0.861	0.164	0.428	0.059	0.361	0.170	0.089	0.322	0.387	0.507	0.230	0.494	1.559	0.270	0.393	1.020	0.200	0.311	1.015	0.297	0.465	1.415	0.173	0.420	0.652	0.203	0.407	0.714	0.195	0.370	0.663	0.202	0.323	0.228	0.266	0.327	0.291	0.246	0.279	0.245	0.249	0.392	0.077	0.330	0.426	0.058	0.304	0.705	0.920	0.180	0.674	0.895	0.136	0.595	0.140	0.481	0.468	0.995	0.448	0.309	1.364	0.420	0.355	1.089	0.570	0.460	0.803	0.625	0.788	0.087	0.413	0.527	0.118	0.439	0.618	0.561	0.480	0.484	1.551	0.415	0.417	1.048	0.479	0.311	1.018	0.404	0.445	1.406	0.496	0.573	0.698	0.501	0.546	0.758	0.511	0.522	0.693	0.504	0.626	0.294	0.485	0.622	0.359	0.492	0.580	0.310	0.497	0.745	0.106	0.434	0.773	0.087	0.472	0.465	0.846	0.586	0.401	0.837	0.624	0.309	1.048	0.347	0.297	1.237	0.336	0.368	1.453	0.333	-0.000	0.011	-0.000	0.719	0.012	-0.006	-0.000	0.011	0.762
12	1.24000	0.496	1.383	0.330	0.623	1.596	0.352	0.228	0.107	0.287	0.460	1.000	0.215	0.533	1.099	0.116	0.746	0.863	0.167	0.422	0.059	0.361	0.164	0.089	0.322	0.383	0.507	0.230	0.494	1.558	0.270	0.392	1.020	0.200	0.311	1.014	0.297	0.465	1.414	0.173	0.417	0.651	0.203	0.405	0.714	0.195	0.368	0.663	0.202	0.318	0.228	0.266	0.322	0.290	0.246	0.274	0.245	0.249	0.386	0.077	0.330	0.420	0.058	0.304	0.707	0.922	0.182	0.677	0.896	0.138	0.607	0.138	0.481	0.468	0.995	0.448	0.309	1.363	0.420	0.355	1.088	0.570	0.459	0.802	0.625	0.801	0.090	0.411	0.539	0.114	0.440	0.616	0.559	0.480	0.484	1.550	0.414	0.417	1.047	0.479	0.311	1.017	0.404	0.445	1.406	0.495	0.572	0.696	0.501	0.545	0.756	0.511	0.520	0.692	0.504	0.633	0.292	0.485	0.627	0.357	0.492	0.586	0.306	0.498	0.757	0.108	0.432	0.786	0.089	0.470	0.464	0.845	0.586	0.400	0.836	0.624	0.309	1.047	0.347	0.298	1.236	0.336	0.368	1.452	0.333	-0.000	0.011	-0.000	0.719	0.011	-0.006	-0.000	0.011	0.762
